# xmcd
#
# Track frame offsets: 
#        150
#        23265
#        40175
#        57520
#        69707
#        95052
#        109890
#        129490
#        141777
#        155660
#
# Disc length: 2316 seconds
#
# Revision: 3
# Processed by: cddbd v1.5.2PL0 Copyright (c) Steve Scherf et al.
# Submitted via: ExactAudioCopy v1.0b3
#
DISCID=8a090a0a
DTITLE=John Mooney - Against the Wall
DYEAR=1996
DGENRE=Blues
TTITLE0=Sacred Gound
TTITLE1=Doggone Thing
TTITLE2=Sweat'n Bones
TTITLE3=Broken Mold
TTITLE4=Late on in the Evening
TTITLE5=3 Sides (2 Every Story)
TTITLE6=The Bitter Pill
TTITLE7=U Tol' Me
TTITLE8=One Step Forward
TTITLE9=Somebody Been Missing Somebody (2 Long)
EXTD=
EXTT0=
EXTT1=
EXTT2=
EXTT3=
EXTT4=
EXTT5=
EXTT6=
EXTT7=
EXTT8=
EXTT9=
PLAYORDER=
